<svg width="74" height="74" xmlns="http://www.w3.org/2000/svg" xml:space="preserve" version="1.1">

 <g>
  <title>Layer 1</title>
  <g id="svg_1">
   <path id="svg_2" data-original="#000000" fill="#ffffff" d="m43.36277,58.57184c-6.662,0 -13.326,-2.753 -19.862,-8.217a53.884,53.884 0 0 1 -14.486,-22.509c-0.048,-0.145 -4.482,-13.509 -8.752,-18.162a1,1 0 0 1 0.469,-1.639c0.313,-0.086 31.548,-8.529 54.535,6.86c0.492,0.325 12.171,8.19 11.422,21.634a23.346,23.346 0 0 1 -19.518,21.733a24.421,24.421 0 0 1 -3.808,0.3zm-40.587,-48.965c4.172,5.658 7.963,17.08 8.135,17.6a52.882,52.882 0 0 0 13.874,21.615c7.317,6.116 14.74,8.632 22.074,7.474a21.335,21.335 0 0 0 17.833,-19.868c0.686,-12.307 -10.42,-19.782 -10.532,-19.857c-19.396,-12.984 -44.96,-8.404 -51.384,-6.964z" xmlns="http://www.w3.org/2000/svg"/>
   <path id="svg_3" data-original="#000000" fill="#ffffff" d="m68.99977,67.86384a1,1 0 0 1 -0.942,-0.664c-13.142,-36.8 -55.251,-51.942 -55.675,-52.09a1,1 0 0 1 0.662,-1.888c0.433,0.152 43.437,15.619 56.9,53.306a1,1 0 0 1 -0.945,1.336z" xmlns="http://www.w3.org/2000/svg"/>
   <path id="svg_4" data-original="#000000" fill="#ffffff" d="m50.85677,39.81484a1.028,1.028 0 0 1 -0.11,-0.006a1,1 0 0 1 -0.885,-1.1c1.3,-11.888 -4.317,-18.433 -4.374,-18.5a1,1 0 0 1 1.5,-1.32c0.257,0.291 6.257,7.28 4.86,20.036a1,1 0 0 1 -0.991,0.89z" xmlns="http://www.w3.org/2000/svg"/>
   <path id="svg_5" data-original="#000000" fill="#ffffff" d="m44.17677,49.53684a23.337,23.337 0 0 1 -4.873,-0.53a1,1 0 1 1 0.416,-1.956c9.884,2.1 15.36,-3.413 15.413,-3.468a1,1 0 0 1 1.438,1.39a17.8,17.8 0 0 1 -12.394,4.564z" xmlns="http://www.w3.org/2000/svg"/>
   <path id="svg_6" data-original="#000000" fill="#ffffff" d="m31.82277,36.63684a29.715,29.715 0 0 1 -7.938,-1.1a1,1 0 1 1 0.532,-1.927c11.206,3.093 18.932,-1.86 19.009,-1.911a1,1 0 1 1 1.1,1.672a24.51,24.51 0 0 1 -12.703,3.266z" xmlns="http://www.w3.org/2000/svg"/>
   <path id="svg_7" data-original="#000000" fill="#ffffff" d="m34.06377,26.21684a1.043,1.043 0 0 1 -0.175,-0.015a1,1 0 0 1 -0.811,-1.159c0.852,-4.81 -3.284,-10.209 -3.326,-10.263a1,1 0 0 1 1.579,-1.228c0.193,0.248 4.725,6.147 3.717,11.839a1,1 0 0 1 -0.984,0.826z" xmlns="http://www.w3.org/2000/svg"/>
   <path id="svg_8" data-original="#000000" fill="#ffffff" d="m20.96177,23.10984a16.487,16.487 0 0 1 -1.864,-0.1a1,1 0 0 1 0.238,-1.986c1.569,0.187 5.087,0.152 5.959,-1.146a1,1 0 0 1 1.66,1.117c-1.205,1.787 -4.062,2.115 -5.993,2.115z" xmlns="http://www.w3.org/2000/svg"/>
  </g>
 </g>
</svg>