<svg width="24" height="24" xmlns="http://www.w3.org/2000/svg">

 <g>
  <title>background</title>
  <rect fill="none" id="canvas_background" height="402" width="582" y="-1" x="-1"/>
 </g>
 <g>
  <title>Layer 1</title>
  <g transform="rotate(-180 11.877300262451172,12) " id="svg_1">
   <path id="svg_2" fill="#ffffff" d="m9.377301,24c-0.668,0 -1.296,-0.26 -1.768,-0.732l-7,-7c-0.472,-0.472 -0.732,-1.1 -0.732,-1.768c0,-0.642 0.243,-1.252 0.684,-1.718l8.274,-8.688c0.657,-0.695 1.584,-1.094 2.542,-1.094l7,0c1.378,0 2.5,1.122 2.5,2.5l0,7c0,0.958 -0.399,1.884 -1.095,2.542l-8.686,8.273c-0.467,0.442 -1.077,0.685 -1.719,0.685zm2,-20c-0.694,0 -1.339,0.278 -1.816,0.782l-8.275,8.688c-0.263,0.279 -0.409,0.645 -0.409,1.03c0,0.401 0.156,0.777 0.439,1.06l7,7c0.556,0.556 1.522,0.569 2.091,0.029l8.686,-8.272s0,0 0.001,-0.001c0.505,-0.477 0.783,-1.122 0.783,-1.816l0,-7c0,-0.827 -0.673,-1.5 -1.5,-1.5l-7,0z"/>
   <path id="svg_3" fill="#ffffff" d="m15.377301,11c-1.378,0 -2.5,-1.122 -2.5,-2.5s1.122,-2.5 2.5,-2.5s2.5,1.122 2.5,2.5s-1.122,2.5 -2.5,2.5zm0,-4c-0.827,0 -1.5,0.673 -1.5,1.5s0.673,1.5 1.5,1.5s1.5,-0.673 1.5,-1.5s-0.673,-1.5 -1.5,-1.5z"/>
   <path id="svg_4" fill="#ffffff" d="m15.377301,9c-0.276,0 -0.5,-0.224 -0.5,-0.5l0,-2c0,-3.584 2.916,-6.5 6.5,-6.5c1.378,0 2.5,1.122 2.5,2.5c0,0.446 -0.044,0.881 -0.131,1.293c-0.057,0.27 -0.325,0.444 -0.592,0.386c-0.271,-0.057 -0.443,-0.322 -0.386,-0.592c0.072,-0.344 0.109,-0.71 0.109,-1.087c0,-0.827 -0.673,-1.5 -1.5,-1.5c-3.033,0 -5.5,2.467 -5.5,5.5l0,2c0,0.276 -0.224,0.5 -0.5,0.5z"/>
  </g>
 </g>
</svg>